<?xml version="1.0" encoding="UTF-8"?>
<!DOCTYPE svg PUBLIC "-//W3C//DTD SVG 1.1//EN" "http://www.w3.org/Graphics/SVG/1.1/DTD/svg11.dtd">
<svg xmlns="http://www.w3.org/2000/svg" version="1.1" width="2000px" height="1333px" style="shape-rendering:geometricPrecision; text-rendering:geometricPrecision; image-rendering:optimizeQuality; fill-rule:evenodd; clip-rule:evenodd" xmlns:xlink="http://www.w3.org/1999/xlink">
<g><path style="opacity:0.102" fill="#a9b1ca" d="M 740.5,-0.5 C 913.5,-0.5 1086.5,-0.5 1259.5,-0.5C 1293.24,93.261 1282.74,181.594 1228,264.5C 1171.26,340.625 1095.09,379.959 999.5,382.5C 891.427,378.799 809.927,330.799 755,238.5C 714.434,160.974 709.601,81.3075 740.5,-0.5 Z"/></g>
<g><path style="opacity:0.102" fill="#a9b1ca" d="M -0.5,971.5 C -0.5,680.833 -0.5,390.167 -0.5,99.5C 28.9314,80.5071 60.5981,76.0071 94.5,86C 113.484,91.826 131.484,99.826 148.5,110C 185.783,133.938 220.783,160.938 253.5,191C 287.338,223.505 320.172,257.005 352,291.5C 368.141,311.112 382.807,331.779 396,353.5C 401.521,365.794 406.354,377.961 410.5,390C 410.043,390.414 409.709,390.914 409.5,391.5C 413.772,410.981 411.605,428.981 403,445.5C 395.295,456.879 386.461,467.379 376.5,477C 352.235,496.805 327.568,516.138 302.5,535C 246.928,581.678 223.761,641.178 233,713.5C 234.5,723.333 236,733.167 237.5,743C 238.789,764.839 238.789,786.672 237.5,808.5C 229.297,866.861 199.297,910.028 147.5,938C 100.907,960.737 51.5737,971.904 -0.5,971.5 Z"/></g>
<g><path style="opacity:0.102" fill="#a9b1ca" d="M 1999.5,249.5 C 1999.5,540.833 1999.5,832.167 1999.5,1123.5C 1974.22,1139.19 1946.89,1144.02 1917.5,1138C 1889.12,1130.49 1862.46,1118.49 1837.5,1102C 1824.83,1093 1812.16,1084 1799.5,1075C 1738.84,1025.68 1683.34,970.844 1633,910.5C 1620.74,893.64 1609.74,875.974 1600,857.5C 1596.6,849.308 1593.6,840.975 1591,832.5C 1589.02,818.825 1589.02,805.158 1591,791.5C 1595.45,778.787 1602.11,767.454 1611,757.5C 1625.91,743.199 1641.08,730.032 1656.5,718C 1677.9,703.044 1698.07,686.544 1717,668.5C 1752.07,632.186 1769.9,588.52 1770.5,537.5C 1768.54,512.403 1765.71,487.403 1762,462.5C 1758,416.132 1768.33,373.465 1793,334.5C 1816.07,304.382 1845.4,283.382 1881,271.5C 1892.62,265.954 1904.62,262.287 1917,260.5C 1943.92,252.785 1971.42,249.119 1999.5,249.5 Z"/></g>
</svg>
